<?xml version="1.0" encoding="UTF-8"?>
<!DOCTYPE svg PUBLIC "-//W3C//DTD SVG 1.1//EN" "http://www.w3.org/Graphics/SVG/1.1/DTD/svg11.dtd">
<!-- Creator: CorelDRAW X7 -->
<svg xmlns="http://www.w3.org/2000/svg" xml:space="preserve" width="3000px" height="3000px" version="1.1" style="shape-rendering:geometricPrecision; text-rendering:geometricPrecision; image-rendering:optimizeQuality; fill-rule:evenodd; clip-rule:evenodd"
viewBox="0 0 3000 3000"
 xmlns:xlink="http://www.w3.org/1999/xlink">
 <defs>
  <style type="text/css">
   <![CDATA[
    .fil0 {fill:#FFCB08}
    .fil1 {fill:#003563;fill-rule:nonzero}
   ]]>
  </style>
 </defs>
 <g id="Layer_x0020_1">
  <metadata id="CorelCorpID_0Corel-Layer"/>
  <g id="_2202117115808">
   <path class="fil0" d="M413 1749l-73 -54 0 -206 -227 -151 0 536 -113 -101 0 -566 413 -259 414 259 0 566 -114 101 0 -536 -227 151 0 206 -73 54zm-242 -230l114 79 0 330 30 124 -144 -127 0 -406zm484 0l-113 79 0 330 -31 124 144 -127 0 -406z"/>
   <path class="fil1" d="M1520 1312c6,0 9,3 9,8l0 409c0,6 -3,9 -9,9l-60 0c-6,0 -9,-3 -9,-9l0 -223 -104 188c-1,2 -2,3 -3,3 -1,0 -2,-1 -3,-3l-104 -188 0 223c0,6 -3,9 -9,9l-60 0c-6,0 -9,-3 -9,-9l0 -409c0,-5 3,-8 9,-8l53 0c3,0 5,1 7,2 2,2 3,4 4,6l112 228 112 -228c1,-2 2,-4 4,-6 2,-1 4,-2 7,-2l53 0zm218 417c0,6 -3,9 -8,9l-56 0c-6,0 -9,-3 -9,-9l0 -409c0,-5 3,-8 9,-8l56 0c5,0 8,3 8,8l0 409zm414 -63c6,0 9,3 9,9l0 54c0,6 -3,9 -9,9l-210 0 -1 0 -1 0 -55 0c-6,0 -9,-3 -9,-9l0 -409c0,-5 3,-8 9,-8l55 0c6,0 9,3 9,8l0 346 203 0zm409 0c6,0 8,3 8,9l0 54c0,6 -2,9 -8,9l-210 0 -1 0 -1 0 -56 0c-5,0 -8,-3 -8,-9l0 -409c0,-5 3,-8 8,-8l56 0c6,0 9,3 9,8l0 346 203 0zm360 -359c11,0 21,2 31,7 9,4 18,9 25,16 7,7 13,15 17,24 4,10 6,20 6,30l0 23c0,6 -3,10 -8,11l-57 15c-6,1 -8,-1 -8,-6l0 -40c0,-4 -2,-7 -5,-10 -3,-3 -6,-4 -10,-4l-130 0c-5,0 -8,1 -11,4 -3,3 -5,6 -5,10l0 43c1,5 2,9 3,12 1,3 4,6 7,10l207 71c7,6 11,12 13,18 2,6 3,12 4,20l0 104c0,11 -2,21 -6,30 -4,9 -10,17 -17,24 -7,7 -16,13 -25,17 -10,4 -20,6 -31,6l-149 0c-11,0 -21,-2 -31,-6 -9,-4 -17,-10 -25,-17 -7,-7 -12,-15 -16,-24 -5,-9 -7,-19 -7,-30l0 -58c0,-6 3,-10 8,-11l57 -15c6,-1 8,1 8,6l0 75c0,4 2,8 5,11 3,2 6,4 11,4l130 0c4,0 7,-2 10,-4 3,-3 5,-7 5,-11l0 -68c-1,-5 -1,-10 -3,-14 -1,-4 -4,-8 -7,-11l-206 -72c-6,-6 -11,-12 -14,-17 -2,-6 -4,-14 -4,-23l0 -73c0,-10 2,-20 7,-30 4,-9 9,-17 16,-24 8,-7 16,-12 25,-16 10,-5 20,-7 31,-7l149 0z"/>
  </g>
 </g>
</svg>
